<svg width="20" height="20" viewBox="0 0 20 20" xmlns="http://www.w3.org/2000/svg">
<path d="M1.62593 19.209L1.62593 19.209L2.84772 5.60241L2.84772 5.60241L2.94732 5.61135L1.62593 19.209ZM1.62593 19.209C1.60543 19.4378 1.68198 19.6645 1.83694 19.8339C1.99189 20.0034 2.21096 20.0999 2.44051 20.0999H17.5563H17.5563H17.5563H17.5564H17.5564H17.5564H17.5564H17.5564H17.5564H17.5565H17.5565H17.5565H17.5565H17.5565H17.5565H17.5566H17.5566H17.5566H17.5566H17.5566H17.5566H17.5567H17.5567H17.5567H17.5567H17.5567H17.5567H17.5568H17.5568H17.5568H17.5568H17.5568H17.5568H17.5569H17.5569H17.5569H17.5569H17.5569H17.5569H17.5569H17.557H17.557H17.557H17.557H17.557H17.557H17.5571H17.5571H17.5571H17.5571H17.5571H17.5571H17.5571H17.5572H17.5572H17.5572H17.5572H17.5572H17.5572H17.5573H17.5573H17.5573H17.5573H17.5573H17.5573H17.5574H17.5574H17.5574H17.5574H17.5574H17.5574H17.5574H17.5575H17.5575H17.5575H17.5575H17.5575H17.5575H17.5576H17.5576H17.5576H17.5576H17.5576H17.5576H17.5576H17.5577H17.5577H17.5577H17.5577H17.5577H17.5577H17.5578H17.5578H17.5578H17.5578H17.5578H17.5578H17.5578H17.5579H17.5579H17.5579H17.5579H17.5579H17.558H17.558H17.558H17.558H17.558H17.558H17.5581H17.5581H17.5581H17.5581H17.5581H17.5581H17.5582H17.5582H17.5582H17.5582C18.01 20.0999 18.3761 19.7337 18.3761 19.282V19.2818M1.62593 19.209L18.3761 19.2818M18.3761 19.2818C18.376 19.2379 18.3725 19.1945 18.3657 19.1521M18.3761 19.2818L18.3657 19.1521M18.3657 19.1521L17.149 5.60241C17.1112 5.18071 16.7577 4.85772 16.3344 4.85772H13.9247V3.8258C13.9247 1.66103 12.1638 -0.1 9.99908 -0.1C7.83448 -0.1 6.07376 1.66104 6.07376 3.8258V4.85772L18.3657 19.1521ZM7.70947 3.8258C7.70947 2.56312 8.73672 1.53572 9.99917 1.53572C11.2617 1.53572 12.2891 2.56313 12.2891 3.8258V4.85772H7.70947V3.8258ZM15.5868 6.49343L16.6617 18.4643H3.33514L4.41004 6.49343H6.07376V7.67715C6.07376 8.12882 6.43983 8.49501 6.89161 8.49501C7.3434 8.49501 7.70947 8.12882 7.70947 7.67715V6.49343H12.2891V7.67715C12.2891 8.12882 12.6551 8.49501 13.1069 8.49501C13.5587 8.49501 13.9248 8.12882 13.9248 7.67715V6.49343H15.5868Z" fill="currentColor" stroke="currentColor" stroke-width="0.2"/>
</svg>
