<svg width="16" height="16" viewBox="0 0 16 16" xmlns="http://www.w3.org/2000/svg">
<path d="M3.28312 10.0386C2.17796 10.0386 1.27881 10.9376 1.27881 12.0429C1.27881 13.1482 2.178 14.0472 3.28312 14.0472C4.38825 14.0472 5.28743 13.148 5.28743 12.0429C5.28743 10.9378 4.38825 10.0386 3.28312 10.0386ZM3.28312 13.0107C2.74956 13.0107 2.31553 12.5766 2.31553 12.0431C2.31553 11.5095 2.74956 11.0753 3.28312 11.0753C3.81668 11.0753 4.25071 11.5095 4.25071 12.0431C4.25071 12.5766 3.81668 13.0107 3.28312 13.0107Z" fill="currentColor"/>
<path d="M12.2328 10.0386C11.1275 10.0386 10.2285 10.9376 10.2285 12.0429C10.2285 13.1482 11.1277 14.0472 12.2328 14.0472C13.338 14.0472 14.2371 13.148 14.2371 12.0429C14.2372 10.9378 13.3381 10.0386 12.2328 10.0386ZM12.2328 13.0107C11.6993 13.0107 11.2652 12.5766 11.2652 12.0431C11.2652 11.5095 11.6993 11.0753 12.2328 11.0753C12.7664 11.0753 13.2006 11.5095 13.2006 12.0431C13.2006 12.5766 12.7664 13.0107 12.2328 13.0107Z" fill="currentColor"/>
<path d="M1.96975 4.52734C1.77572 4.52734 1.59791 4.63569 1.50894 4.80828L0.0575312 7.62472C0.0196875 7.69812 0 7.77953 0 7.86212V12.0436C0 12.3299 0.232062 12.5619 0.518344 12.5619H1.77969V11.5252H1.03672V7.98791L2.28578 5.56406H6.23756V4.52734H1.96975Z" fill="currentColor"/>
<path d="M10.7296 11.5249H4.82031V12.5616H10.7296V11.5249Z" fill="currentColor"/>
<path d="M15.4816 1.95264H6.23758C5.95127 1.95264 5.71924 2.1847 5.71924 2.47098V12.0433H6.75596V2.98936H14.9633V11.525H13.7192V12.5617H15.4816C15.768 12.5617 16 12.3296 16 12.0434V2.47101C16 2.1847 15.7679 1.95264 15.4816 1.95264Z" fill="currentColor"/>
<path d="M6.23777 7.36084H0.518555V8.39757H6.23777V7.36084Z" fill="currentColor"/>
<path d="M13.3984 5.11608C13.2082 4.90183 12.8804 4.88264 12.6667 5.07289L10.097 7.35539L9.07755 6.32283C8.87643 6.11911 8.54815 6.11705 8.34458 6.31817C8.14087 6.5193 8.1388 6.84758 8.33993 7.0513L9.70477 8.43358C9.80587 8.53605 9.93977 8.58789 10.0738 8.58789C10.1965 8.58789 10.3194 8.54451 10.4177 8.45708L13.3551 5.84783C13.5691 5.65776 13.5885 5.33014 13.3984 5.11608Z" fill="currentColor"/>
</svg>
