<svg width="30" height="30" viewBox="0 0 30 30" xmlns="http://www.w3.org/2000/svg">
<path d="M14.9993 18.0028C16.6541 18.0028 18.0034 16.6561 18.0034 15C18.0034 14.3462 17.7895 13.7426 17.4353 13.2496C16.8898 12.4931 16.0028 11.9971 15.0011 11.9971C13.9987 11.9971 13.1123 12.4925 12.5655 13.249C12.2102 13.742 11.9982 14.3456 11.9976 14.9994C11.9958 16.6555 13.3437 18.0028 14.9993 18.0028Z" fill="currentColor"/>
<path d="M21.5569 11.3263V8.80918V8.43457L21.1805 8.43577L18.6646 8.44363L18.6742 11.336L21.5569 11.3263Z" fill="currentColor"/>
<path d="M15 0C6.72903 0 0 6.72903 0 15C0 23.2704 6.72903 30 15 30C23.2704 30 30 23.2704 30 15C30 6.72903 23.2716 0 15 0ZM23.5308 13.2496V20.2342C23.5308 22.0534 22.0517 23.532 20.2337 23.532H9.76638C7.94772 23.532 6.46923 22.0534 6.46923 20.2342V13.2496V9.76698C6.46923 7.94832 7.94772 6.46983 9.76638 6.46983H20.233C22.0516 6.46983 23.5308 7.94832 23.5308 9.76698V13.2496Z" fill="currentColor"/>
<path d="M19.6662 14.9999C19.6662 17.5719 17.5731 19.6661 14.9998 19.6661C12.4265 19.6661 10.3342 17.5719 10.3342 14.9999C10.3342 14.3812 10.4574 13.7897 10.6773 13.2495H8.13062V20.2341C8.13062 21.1368 8.86352 21.8679 9.7656 21.8679H20.2323C21.1332 21.8679 21.8673 21.1368 21.8673 20.2341V13.2495H19.3192C19.5411 13.7897 19.6662 14.3812 19.6662 14.9999Z" fill="currentColor"/>
</svg>
