<svg width="25" height="25" viewBox="0 0 25 25" xmlns="http://www.w3.org/2000/svg">
<path fill-rule="evenodd" clip-rule="evenodd" d="M25 12.5C25 19.4036 19.4036 25 12.5 25C5.59644 25 0 19.4036 0 12.5C0 5.59644 5.59644 0 12.5 0C19.4036 0 25 5.59644 25 12.5ZM12.3109 14.8611C11.2255 14.7479 10.247 14.4806 9.40913 13.8253C9.3883 13.809 9.36732 13.7928 9.34634 13.7765L9.34634 13.7765C9.26265 13.7118 9.17883 13.647 9.10298 13.5742C8.73627 13.222 8.69932 12.8186 8.98949 12.4029C9.23773 12.0472 9.65444 11.952 10.0876 12.1563C10.1714 12.1959 10.2514 12.2453 10.3279 12.2984C11.8893 13.3712 14.0343 13.4009 15.6016 12.3466C15.7569 12.2275 15.9228 12.1305 16.1152 12.0809C16.4893 11.9849 16.8381 12.1223 17.0388 12.4495C17.2681 12.8233 17.2652 13.1881 16.9827 13.4783C16.5492 13.9231 16.028 14.245 15.4488 14.4696C14.9012 14.6819 14.3013 14.7888 13.7076 14.8598L13.7678 14.9255C13.8196 14.9822 13.8537 15.0195 13.8955 15.0615C14.1892 15.3566 14.4833 15.6513 14.7775 15.9459L14.7778 15.9462C15.291 16.4602 15.8041 16.9742 16.3148 17.4905C16.5885 17.7674 16.6457 18.1106 16.495 18.4326C16.3302 18.7845 15.9613 19.016 15.5995 18.9913C15.3704 18.9754 15.1916 18.8613 15.0328 18.7014C14.8335 18.5008 14.6329 18.3013 14.4323 18.1019L14.4322 18.1019C14.0208 17.6929 13.6093 17.2839 13.2087 16.8646C13.0352 16.6832 12.9518 16.7175 12.7987 16.875C12.1867 17.5051 11.5647 18.1254 10.939 18.7423C10.6581 19.0193 10.3238 19.0691 9.99798 18.9109C9.65165 18.743 9.43127 18.3895 9.44828 18.0342C9.46001 17.7939 9.57819 17.6103 9.74315 17.4457C10.386 16.8038 11.0274 16.1606 11.6686 15.5175L11.669 15.5171L12.1324 15.0524C12.1648 15.0198 12.1959 14.9859 12.2329 14.9455L12.2329 14.9455L12.2329 14.9455C12.256 14.9203 12.2814 14.8926 12.3109 14.8611ZM9.45947 8.53522C9.44818 10.4745 11.0358 12.0796 12.972 12.0862C14.9279 12.093 16.5266 10.5243 16.5365 8.58903C16.5463 6.60797 14.9738 5.0052 13.0146 4.99992C11.0593 4.99449 9.47062 6.57454 9.45947 8.53522ZM13.0005 6.80958C13.9615 6.81046 14.7283 7.57702 14.7317 8.53991C14.7349 9.50266 13.9701 10.2742 13.0094 10.2776C12.0458 10.2811 11.2724 9.51996 11.2652 8.56073C11.2577 7.58904 12.0314 6.80855 13.0005 6.80958Z" fill="currentColor"/>
</svg>
