<svg width="48" height="16" viewBox="0 0 48 16" fill="none" xmlns="http://www.w3.org/2000/svg">
<path d="M19.1529 0.799072L16.7219 15.0651H20.6099L23.0429 0.799072H19.1529Z" fill="#8E8E8E"/>
<path d="M13.4621 0.815012L9.65406 10.544L9.24806 9.07501C8.49706 7.30501 6.36506 4.76301 3.86206 3.16101L7.34406 15.058L11.4581 15.051L17.5811 0.812012L13.4621 0.815012Z" fill="#8E8E8E"/>
<path d="M7.772 1.836C7.546 0.967002 6.891 0.708002 6.078 0.677002H0.05L0 0.961002C4.691 2.099 7.795 4.841 9.083 8.138L7.772 1.836Z" fill="#8E8E8E"/>
<path d="M30.923 3.53395C32.195 3.51395 33.117 3.79195 33.833 4.07995L34.184 4.24496L34.71 1.15295C33.94 0.863954 32.733 0.553955 31.227 0.553955C27.385 0.553955 24.677 2.48895 24.656 5.26195C24.631 7.31095 26.585 8.45495 28.061 9.13795C29.576 9.83795 30.084 10.283 30.077 10.908C30.065 11.863 28.869 12.301 27.752 12.301C26.195 12.301 25.368 12.086 24.091 11.554L23.59 11.326L23.043 14.519C23.953 14.918 25.632 15.261 27.375 15.279C31.462 15.279 34.118 13.367 34.146 10.404C34.163 8.78295 33.126 7.54595 30.879 6.53095C29.519 5.86895 28.687 5.42895 28.695 4.76095C28.695 4.16795 29.401 3.53395 30.923 3.53395Z" fill="#8E8E8E"/>
<path d="M44.688 0.814941H41.684C40.751 0.814941 40.057 1.06894 39.647 1.99894L33.874 15.0729H37.957C37.957 15.0729 38.623 13.3149 38.774 12.9299C39.221 12.9299 43.188 12.9359 43.753 12.9359C43.869 13.4339 44.227 15.0729 44.227 15.0729H47.834L44.688 0.814941ZM39.893 10.0099C40.213 9.19094 41.442 6.02294 41.442 6.02294C41.421 6.06194 41.759 5.19794 41.96 4.66094L42.222 5.89094C42.222 5.89094 42.967 9.29694 43.123 10.0099H39.893Z" fill="#8E8E8E"/>
</svg>
