<svg width="40" height="32" viewBox="0 0 40 32" fill="none" xmlns="http://www.w3.org/2000/svg">
<path d="M7.3773 30.8514V28.8081C7.38929 28.6362 7.36449 28.4638 7.30457 28.3023C7.24465 28.1407 7.15098 27.9938 7.02981 27.8714C6.90864 27.7489 6.76275 27.6537 6.60188 27.5921C6.441 27.5305 6.26884 27.5038 6.09687 27.514C5.8718 27.4994 5.64691 27.5453 5.44566 27.6471C5.2444 27.749 5.07415 27.9029 4.95263 28.0929C4.84189 27.9086 4.68349 27.7575 4.4941 27.6556C4.30471 27.5538 4.09136 27.5048 3.8765 27.514C3.68922 27.5046 3.50271 27.5443 3.33547 27.6291C3.16822 27.7139 3.02603 27.8409 2.92297 27.9976V27.5958H2.2146V30.8514H2.92974V29.0465C2.91428 28.9351 2.92368 28.8217 2.95726 28.7143C2.99084 28.607 3.04776 28.5085 3.12395 28.4258C3.20014 28.3431 3.29369 28.2783 3.3979 28.2361C3.5021 28.1938 3.61437 28.1752 3.72664 28.1815C4.19659 28.1815 4.43501 28.488 4.43501 29.0396V30.8514H5.15015V29.0465C5.13585 28.9353 5.14606 28.8223 5.18007 28.7155C5.21407 28.6087 5.27105 28.5107 5.347 28.4282C5.42294 28.3458 5.51601 28.281 5.61968 28.2384C5.72334 28.1957 5.83507 28.1763 5.94704 28.1815C6.43058 28.1815 6.66215 28.488 6.66215 29.0396V30.8514H7.3773ZM17.9615 27.5958H16.8037V26.6082H16.0885V27.5958H15.4278V28.2428H16.0885V29.7276C16.0885 30.4836 16.3814 30.9331 17.2191 30.9331C17.5321 30.9341 17.839 30.8467 18.1045 30.6811L17.9002 30.0749C17.7103 30.1882 17.4947 30.2515 17.2736 30.2588C16.9194 30.2588 16.8037 30.0408 16.8037 29.714V28.2428H17.9615V27.5958ZM24.0028 27.514C23.8301 27.5089 23.6593 27.5505 23.5082 27.6344C23.3572 27.7183 23.2316 27.8415 23.1447 27.9908V27.5958H22.4431V30.8514H23.1515V29.026C23.1515 28.488 23.383 28.1883 23.8462 28.1883C23.9977 28.1862 24.1481 28.214 24.2889 28.27L24.5068 27.6025C24.3451 27.5447 24.1746 27.5147 24.0028 27.514ZM14.8694 27.8545C14.4684 27.6161 14.0074 27.4979 13.5412 27.514C12.7171 27.514 12.1859 27.909 12.1859 28.5561C12.1859 29.0874 12.5809 29.4143 13.3096 29.5164L13.6434 29.5641C14.0316 29.6185 14.2155 29.7207 14.2155 29.9046C14.2155 30.1566 13.9566 30.2997 13.4731 30.2997C13.0841 30.3109 12.7027 30.1909 12.3902 29.9591L12.0564 30.5108C12.469 30.799 12.9632 30.947 13.4663 30.9331C14.4062 30.9331 14.951 30.4904 14.951 29.8706C14.951 29.2985 14.522 28.9988 13.8137 28.8966L13.48 28.8489C13.1734 28.8081 12.9283 28.7468 12.9283 28.5289C12.9283 28.2905 13.1598 28.1474 13.548 28.1474C13.9045 28.1528 14.2538 28.2489 14.5629 28.4267L14.8694 27.8545ZM33.8446 27.514C33.6719 27.5089 33.5011 27.5505 33.35 27.6344C33.199 27.7183 33.0734 27.8415 32.9865 27.9908V27.5958H32.285V30.8514H32.9933V29.026C32.9933 28.488 33.2249 28.1883 33.688 28.1883C33.8395 28.1862 33.99 28.214 34.1307 28.27L34.3487 27.6025C34.1869 27.5447 34.0165 27.5147 33.8446 27.514ZM24.718 29.2235C24.7085 29.4529 24.7472 29.6816 24.8316 29.8951C24.9159 30.1086 25.044 30.3021 25.2076 30.4632C25.3711 30.6242 25.5666 30.7492 25.7814 30.8301C25.9963 30.9111 26.2256 30.9462 26.4548 30.9331C26.8801 30.9545 27.2979 30.816 27.6262 30.5449L27.2857 29.9727C27.0408 30.1594 26.7423 30.2621 26.4343 30.2656C26.1689 30.2495 25.9196 30.1327 25.7374 29.939C25.5551 29.7454 25.4536 29.4895 25.4536 29.2235C25.4536 28.9576 25.5551 28.7017 25.7374 28.508C25.9196 28.3144 26.1689 28.1976 26.4343 28.1815C26.7423 28.185 27.0408 28.2877 27.2857 28.4744L27.6262 27.9022C27.2979 27.6311 26.8801 27.4927 26.4548 27.514C26.2256 27.501 25.9963 27.5361 25.7815 27.617C25.5667 27.6979 25.3712 27.8229 25.2076 27.9839C25.044 28.1449 24.9159 28.3384 24.8316 28.5519C24.7473 28.7654 24.7086 28.9941 24.718 29.2235ZM31.3518 29.2235V27.5958H30.6435V27.9908C30.5226 27.835 30.3661 27.7104 30.1872 27.6274C30.0083 27.5445 29.8121 27.5056 29.615 27.514C29.1761 27.5355 28.7623 27.725 28.4593 28.0433C28.1563 28.3615 27.9872 28.7841 27.9872 29.2236C27.9872 29.663 28.1563 30.0856 28.4593 30.4039C28.7623 30.7221 29.1761 30.9116 29.615 30.9331C29.8121 30.9415 30.0083 30.9026 30.1872 30.8197C30.3661 30.7367 30.5226 30.6121 30.6435 30.4563V30.8514H31.3518V29.2235ZM28.716 29.2235C28.727 29.0314 28.794 28.8467 28.9087 28.6922C29.0234 28.5377 29.1808 28.4201 29.3615 28.354C29.5422 28.2879 29.7383 28.2761 29.9256 28.3201C30.113 28.3641 30.2833 28.462 30.4157 28.6017C30.5481 28.7414 30.6367 28.9167 30.6706 29.1061C30.7045 29.2956 30.6822 29.4907 30.6065 29.6677C30.5308 29.8446 30.4049 29.9954 30.2445 30.1017C30.0841 30.208 29.8961 30.2649 29.7036 30.2656C29.5687 30.2674 29.435 30.2413 29.3107 30.1889C29.1864 30.1364 29.0743 30.0588 28.9815 29.9609C28.8888 29.863 28.8173 29.7469 28.7716 29.62C28.7258 29.4931 28.7069 29.3581 28.716 29.2235ZM20.1683 27.514C19.7266 27.5373 19.311 27.7307 19.0088 28.0537C18.7066 28.3767 18.5412 28.8042 18.5474 29.2465C18.5536 29.6888 18.7308 30.1115 19.0419 30.426C19.353 30.7405 19.7738 30.9222 20.216 30.9331C20.7019 30.9502 21.1771 30.7877 21.5509 30.4767L21.2035 29.9523C20.9346 30.1679 20.6015 30.2877 20.2568 30.2929C20.0228 30.3125 19.7902 30.2404 19.6084 30.0916C19.4267 29.9429 19.3099 29.7293 19.2829 29.4959H21.7008C21.7076 29.4074 21.7144 29.3189 21.7144 29.2235C21.7076 28.2087 21.081 27.514 20.1683 27.514ZM20.1546 28.1474C20.3686 28.1433 20.5755 28.2241 20.73 28.3722C20.8844 28.5203 20.9739 28.7236 20.9788 28.9375H19.2897C19.3021 28.7189 19.3996 28.5139 19.5612 28.3663C19.7228 28.2186 19.9358 28.1401 20.1546 28.1474ZM37.9244 29.2235V26.2881H37.216V27.9908C37.0951 27.835 36.9387 27.7104 36.7598 27.6274C36.5808 27.5445 36.3847 27.5056 36.1876 27.514C35.7487 27.5355 35.3349 27.725 35.0318 28.0433C34.7288 28.3615 34.5598 28.7841 34.5598 29.2236C34.5598 29.663 34.7288 30.0856 35.0318 30.4039C35.3349 30.7221 35.7487 30.9116 36.1876 30.9331C36.3847 30.9415 36.5808 30.9026 36.7598 30.8197C36.9387 30.7367 37.0951 30.6121 37.216 30.4563V30.8514H37.9244V29.2235ZM39.1052 30.3796C39.1492 30.3793 39.1928 30.3879 39.2333 30.405C39.2723 30.4212 39.3078 30.4448 39.338 30.4744C39.368 30.5039 39.3919 30.5389 39.4085 30.5775C39.4256 30.6171 39.4344 30.6598 39.4344 30.703C39.4344 30.7461 39.4256 30.7889 39.4085 30.8285C39.3918 30.8669 39.3679 30.9018 39.338 30.9312C39.3078 30.9608 39.2722 30.9844 39.2333 31.0009C39.1928 31.0183 39.1492 31.0271 39.1052 31.0268C39.0404 31.0274 38.9768 31.009 38.9224 30.9737C38.8681 30.9384 38.8253 30.8879 38.7995 30.8285C38.7825 30.7888 38.7737 30.7461 38.7737 30.703C38.7737 30.6598 38.7825 30.6171 38.7995 30.5775C38.8161 30.5389 38.8399 30.5039 38.8697 30.4744C38.8998 30.4446 38.9355 30.421 38.9748 30.405C39.0161 30.3879 39.0604 30.3792 39.1052 30.3796ZM39.1052 30.9554C39.1387 30.9556 39.172 30.9489 39.2028 30.9356C39.2324 30.9227 39.2593 30.9044 39.2821 30.8816C39.3291 30.8341 39.3555 30.77 39.3555 30.7031C39.3555 30.6363 39.3291 30.5722 39.2821 30.5247C39.2593 30.5019 39.2324 30.4838 39.2028 30.4712C39.1719 30.4581 39.1387 30.4515 39.1052 30.4517C39.071 30.4515 39.0372 30.4581 39.0057 30.4712C38.9756 30.4836 38.9483 30.5018 38.9252 30.5247C38.8781 30.5722 38.8517 30.6363 38.8517 30.7031C38.8517 30.77 38.8781 30.8341 38.9252 30.8816C38.9483 30.9046 38.9756 30.9229 39.0057 30.9356C39.0371 30.9489 39.071 30.9556 39.1052 30.9554ZM39.1242 30.5516C39.1561 30.5496 39.1877 30.5587 39.2135 30.5775C39.2238 30.5859 39.232 30.5967 39.2374 30.6089C39.2428 30.6211 39.2454 30.6343 39.2448 30.6477C39.2451 30.6591 39.2431 30.6704 39.2388 30.681C39.2345 30.6916 39.228 30.7011 39.2198 30.7091C39.2001 30.7266 39.1751 30.737 39.1488 30.7388L39.2472 30.8522H39.1703L39.0791 30.7396H39.0497V30.8522H38.9855V30.5516H39.1242ZM39.0497 30.608V30.6881H39.1235C39.1376 30.6888 39.1517 30.6853 39.1639 30.6781C39.1689 30.6748 39.1729 30.6703 39.1755 30.6649C39.1782 30.6596 39.1793 30.6536 39.179 30.6477C39.1793 30.6418 39.1781 30.636 39.1754 30.6307C39.1728 30.6255 39.1688 30.6211 39.1639 30.6179C39.1517 30.6107 39.1376 30.6073 39.1235 30.608H39.0497ZM35.2886 29.2235C35.2996 29.0314 35.3666 28.8467 35.4813 28.6922C35.596 28.5377 35.7534 28.4202 35.9341 28.3541C36.1148 28.288 36.3109 28.2762 36.4982 28.3202C36.6856 28.3643 36.8559 28.4621 36.9883 28.6018C37.1206 28.7415 37.2092 28.9168 37.2431 29.1062C37.277 29.2956 37.2547 29.4908 37.179 29.6677C37.1033 29.8446 36.9774 29.9955 36.817 30.1017C36.6566 30.208 36.4686 30.2649 36.2761 30.2656C36.1413 30.2674 36.0075 30.2413 35.8832 30.1888C35.759 30.1364 35.6469 30.0588 35.5541 29.9609C35.4613 29.8629 35.3898 29.7469 35.3441 29.62C35.2984 29.4931 35.2795 29.3581 35.2886 29.2235ZM11.3685 29.2235V27.5958H10.6602V27.9908C10.5393 27.835 10.3828 27.7104 10.2039 27.6274C10.025 27.5445 9.82875 27.5056 9.63172 27.514C9.19281 27.5355 8.77899 27.725 8.47596 28.0433C8.17294 28.3615 8.00393 28.7841 8.00393 29.2236C8.00393 29.663 8.17294 30.0856 8.47596 30.4039C8.77899 30.7221 9.19281 30.9116 9.63172 30.9331C9.82876 30.9415 10.025 30.9026 10.2039 30.8197C10.3828 30.7367 10.5393 30.6121 10.6602 30.4563V30.8514H11.3685V29.2235ZM8.73272 29.2235C8.74372 29.0314 8.81071 28.8467 8.92542 28.6922C9.04012 28.5377 9.19754 28.4202 9.37824 28.3541C9.55895 28.288 9.75506 28.2762 9.94237 28.3202C10.1297 28.3643 10.3 28.4621 10.4324 28.6018C10.5647 28.7415 10.6533 28.9168 10.6872 29.1062C10.7211 29.2956 10.6988 29.4908 10.6231 29.6677C10.5474 29.8446 10.4216 29.9955 10.2611 30.1017C10.1007 30.208 9.91269 30.2649 9.72027 30.2656C9.5854 30.2674 9.45161 30.2413 9.32734 30.1888C9.20308 30.1364 9.09103 30.0588 8.99825 29.9609C8.90547 29.8629 8.83397 29.7469 8.78828 29.62C8.74258 29.4931 8.72366 29.3581 8.73272 29.2235Z" fill="#8E8E8E"/>
<path d="M25.3662 2.7832H14.6375V22.063H25.3662V2.7832Z" fill="#8E8E8E"/>
<path d="M15.3163 12.4223C15.3146 10.5655 15.7354 8.73266 16.5468 7.06253C17.3581 5.3924 18.5388 3.92874 19.9995 2.78238C18.1907 1.36061 16.0183 0.476441 13.7308 0.230916C11.4432 -0.0146091 9.13275 0.388422 7.06342 1.39394C4.9941 2.39946 3.24941 3.9669 2.0288 5.9171C0.80819 7.8673 0.160889 10.1216 0.160889 12.4223C0.160889 14.723 0.80819 16.9772 2.0288 18.9275C3.24941 20.8777 4.9941 22.4451 7.06342 23.4506C9.13275 24.4561 11.4432 24.8592 13.7308 24.6136C16.0183 24.3681 18.1907 23.4839 19.9995 22.0622C18.5388 20.9158 17.3581 19.4522 16.5468 17.782C15.7354 16.1119 15.3146 14.2791 15.3163 12.4223Z" fill="#525252"/>
<path d="M39.8397 12.4223C39.8397 14.7229 39.1925 16.9772 37.972 18.9274C36.7514 20.8776 35.0068 22.4451 32.9375 23.4506C30.8682 24.4561 28.5578 24.8592 26.2703 24.6136C23.9828 24.3681 21.8105 23.4839 20.0017 22.0622C21.4611 20.9146 22.6408 19.4508 23.4521 17.7809C24.2633 16.111 24.6848 14.2788 24.6848 12.4223C24.6848 10.5658 24.2633 8.73353 23.4521 7.06366C22.6408 5.3938 21.4611 3.9299 20.0017 2.78237C21.8105 1.36061 23.9828 0.476436 26.2703 0.230914C28.5578 -0.0146083 30.8682 0.38843 32.9375 1.39396C35.0068 2.39949 36.7514 3.96694 37.972 5.91714C39.1925 7.86735 39.8397 10.1216 39.8397 12.4223Z" fill="#C4C4C4"/>
<path d="M38.67 20.0225V19.6278H38.8292V19.5474H38.4238V19.6278H38.5831V20.0225H38.67ZM39.457 20.0225V19.5466H39.3327L39.1898 19.874L39.0468 19.5466H38.9225V20.0225H39.0103V19.6636L39.1443 19.9731H39.2353L39.3693 19.6628V20.0225H39.457Z" fill="#C4C4C4"/>
</svg>
