<svg width="37" height="16" viewBox="0 0 37 16" fill="none" xmlns="http://www.w3.org/2000/svg">
<g clip-path="url(#clip0_70_33)">
<path d="M6.7314 2.50296C6.51507 2.76966 6.24142 2.98419 5.93078 3.1306C5.62015 3.27702 5.28052 3.35155 4.93712 3.34868C4.89726 2.66773 5.12718 1.99849 5.57712 1.48582C6.03122 0.962491 6.67 0.634909 7.35997 0.571533C7.38728 0.918984 7.34582 1.26841 7.23797 1.59982C7.13011 1.93124 6.95797 2.23814 6.7314 2.50296ZM7.35997 3.48582C6.36569 3.42868 5.51997 4.04582 5.07426 4.04582C4.62855 4.04582 3.9314 3.5201 3.08569 3.53153C2.57142 3.54184 2.0688 3.68649 1.62773 3.95113C1.18667 4.21577 0.822502 4.59119 0.571403 5.0401C-0.491454 6.8801 0.297117 9.61153 1.33712 11.1087C1.83997 11.8401 2.47997 12.663 3.24569 12.6287C4.0114 12.5944 4.29712 12.1372 5.2114 12.1372C6.12569 12.1372 6.35426 12.6287 7.18855 12.6172C8.02283 12.6058 8.53712 11.8744 9.0514 11.1315C9.4065 10.6066 9.68367 10.0331 9.87426 9.42868C9.39689 9.22193 8.99019 8.88043 8.70397 8.44603C8.41775 8.01163 8.26445 7.50318 8.26283 6.98296C8.27105 6.52331 8.39466 6.0731 8.62232 5.6737C8.84998 5.2743 9.17437 4.93853 9.56569 4.69725C9.31369 4.34246 8.98399 4.04992 8.60172 3.84195C8.21946 3.63398 7.79474 3.51608 7.35997 3.49725V3.48582ZM13.0743 1.42868V12.5715H14.8571V8.73153H17.2457C17.7358 8.75903 18.2262 8.68372 18.6855 8.51042C19.1448 8.33713 19.5627 8.0697 19.9125 7.7253C20.2623 7.38089 20.5362 6.96714 20.7166 6.51061C20.897 6.05408 20.9799 5.56487 20.96 5.07439C20.9828 4.58808 20.9038 4.10236 20.7281 3.64832C20.5524 3.19429 20.2838 2.78195 19.9395 2.4377C19.5953 2.09344 19.1829 1.82486 18.7289 1.64914C18.2749 1.47342 17.7891 1.39444 17.3028 1.41725L13.0743 1.42868ZM14.8571 2.88011H16.8C17.1055 2.83671 17.4168 2.86222 17.7112 2.95476C18.0056 3.04729 18.2755 3.20451 18.5012 3.4149C18.727 3.62529 18.9028 3.88352 19.0158 4.17066C19.1288 4.4578 19.1761 4.76659 19.1543 5.07439C19.1757 5.38408 19.1279 5.69466 19.0144 5.98359C18.9009 6.27252 18.7245 6.53256 18.498 6.74484C18.2715 6.95712 18.0006 7.11631 17.7049 7.21087C17.4092 7.30543 17.0962 7.33299 16.7885 7.29153H14.8571V2.88011ZM24.0685 12.5715C24.5795 12.5839 25.0845 12.4589 25.5308 12.2096C25.977 11.9604 26.3482 11.596 26.6057 11.1544V12.5715H28.2057V7.00582C28.2057 5.39439 26.9257 4.36582 24.9485 4.36582C22.9714 4.36582 21.7943 5.41725 21.7143 6.85725H23.2685C23.3574 6.50175 23.5718 6.19034 23.8721 5.98034C24.1724 5.77034 24.5384 5.67589 24.9028 5.71439C25.9543 5.71439 26.5485 6.21725 26.5485 7.1201V7.72582L24.3885 7.86296C22.3885 7.97725 21.3028 8.80011 21.3028 10.2287C21.3142 10.5699 21.397 10.905 21.5457 11.2123C21.6944 11.5197 21.9058 11.7925 22.1664 12.0132C22.4269 12.2339 22.7307 12.3976 23.0583 12.4937C23.386 12.5899 23.7301 12.6164 24.0685 12.5715ZM24.5257 11.2572C23.6114 11.2572 23.0285 10.8115 23.0285 10.1144C23.0285 9.41725 23.5885 8.97153 24.6628 8.97153L26.5828 8.84582V9.47439C26.5778 9.73283 26.5193 9.98743 26.4111 10.2222C26.3029 10.4569 26.1473 10.6668 25.9541 10.8385C25.7609 11.0102 25.5343 11.1402 25.2885 11.2201C25.0426 11.3 24.7829 11.3282 24.5257 11.303V11.2572ZM30.3771 15.5087C32.0571 15.5087 32.8457 14.8687 33.5428 12.9258L36.5714 4.46868H34.8228L32.7885 11.0401L30.7543 4.46868H28.9143L31.84 12.5715L31.68 13.063C31.6215 13.3989 31.441 13.7014 31.1731 13.9123C30.9052 14.1232 30.5688 14.2278 30.2285 14.2058H29.7143V15.543C29.9348 15.5588 30.1561 15.5626 30.3771 15.5544V15.5087Z" fill="#8E8E8E"/>
</g>
<defs>
<clipPath id="clip0_70_33">
<rect width="36.5714" height="16" fill="white"/>
</clipPath>
</defs>
</svg>
