<svg width="159" height="29" viewBox="0 0 159 29" fill="none" xmlns="http://www.w3.org/2000/svg">
<path d="M118.001 24.8544V8.16494H120.715V9.3911C121.093 8.77802 121.814 8.3693 122.398 8.16494C122.982 7.96058 123.566 7.89246 124.185 7.89246C125.696 7.89246 127.277 8.40336 128.583 9.7317C129.785 10.9579 130.404 12.4906 130.404 14.2617C130.404 15.0791 130.232 15.8966 129.923 16.6459C129.614 17.4296 129.167 18.1108 128.617 18.6895C128.033 19.3029 127.346 19.7798 126.624 20.086C125.868 20.3925 125.181 20.5628 124.288 20.5628C123.635 20.5628 122.982 20.461 122.398 20.2563C121.814 20.0519 120.99 19.6098 120.68 19.0989V24.8891H118.001V24.8544H118.001ZM124.082 10.2429C123.086 10.2429 122.227 10.5495 121.54 11.2647C120.818 12.0141 120.543 13.0699 120.543 14.1598C120.543 15.2835 120.819 16.4078 121.506 17.1568C122.227 17.9065 123.086 18.1786 124.117 18.1786C125.148 18.1786 126.007 17.7702 126.625 17.1227C127.347 16.3738 127.69 15.3857 127.69 14.2957C127.69 13.1036 127.347 12.0818 126.625 11.3325C126.006 10.6513 125.113 10.2429 124.082 10.2429ZM146.037 8.16494H148.888L152.599 16.7484L156.069 8.16494H158.921L151.809 24.8544H148.991L151.259 19.5751L146.037 8.16494ZM141.708 20.3247V19.0642C141.398 19.5751 140.574 20.0519 139.99 20.2222C139.371 20.4266 138.752 20.5287 138.1 20.5287C137.206 20.5287 136.519 20.3584 135.764 20.0519C135.042 19.7454 134.355 19.2689 133.771 18.6554C133.221 18.0768 132.775 17.3956 132.465 16.6118C132.156 15.8281 131.984 15.0451 131.984 14.2276C131.984 12.4565 132.603 10.9238 133.805 9.69764C135.111 8.3693 136.726 7.8584 138.203 7.8584C138.822 7.8584 139.406 7.96058 139.99 8.13088C140.574 8.33524 141.295 8.74396 141.673 9.35704V8.13088H144.387V20.2907H141.707V20.3247H141.708ZM135.764 11.2985C135.042 12.0478 134.698 13.1036 134.698 14.2617C134.698 15.352 135.042 16.339 135.764 17.0887C136.416 17.7358 137.241 18.1445 138.272 18.1445C139.303 18.1445 140.161 17.8717 140.883 17.1227C141.605 16.3738 141.845 15.2835 141.845 14.1254C141.845 13.0696 141.57 11.9797 140.849 11.2303C140.127 10.5151 139.268 10.2085 138.306 10.2085C137.241 10.2429 136.382 10.6513 135.764 11.2985ZM102.918 9.86794V20.0519H99.2073L96.6649 11.6731H96.5962L96.7336 20.0519H94.1911V9.86794H98.0392L100.444 17.9405H100.479L100.341 9.86794H102.918ZM49.5264 20.1544L51.4504 9.86794H56.0543L57.9783 20.1544H55.1954L53.7867 10.7876H53.7524L52.3094 20.1544H49.5264ZM71.3778 9.86794L71.6183 20.1544H69.0071L68.9384 10.8897H68.8697L67.1518 20.1544H64.5063L62.7884 10.8897H62.7197L62.651 20.1544H60.0398L60.2803 9.86794H64.5406L65.8119 17.7362H65.8462L67.1518 9.86794H71.3778ZM87.6289 18.5877C88.3507 18.5877 88.5909 18.1108 88.6252 17.838C88.6596 17.7362 88.6596 17.5659 88.6596 17.4296V9.86828H91.3051V17.2593C91.3051 17.4637 91.2708 17.838 91.2708 17.9405C91.099 19.8479 89.5529 20.495 87.6285 20.495C85.7045 20.495 84.1928 19.8816 84.021 17.9405C84.021 17.838 83.9866 17.4637 83.9866 17.2593V9.86828H86.6322V17.4974C86.6322 17.6336 86.6322 17.7702 86.6665 17.9065C86.7012 18.1108 86.9074 18.5877 87.6289 18.5877ZM45.1287 17.2253C45.2317 17.4633 45.1974 17.8039 45.163 17.9742C45.0599 18.3148 44.8538 18.6554 44.1323 18.6554C43.4795 18.6554 43.1016 18.2808 43.1016 17.7362V16.7484H40.3186V17.5315C40.3186 19.8479 42.1396 20.5291 44.0979 20.5291C45.9876 20.5291 47.5337 19.8819 47.7742 18.1789C47.9116 17.2934 47.8085 16.7147 47.7742 16.4759C47.3275 14.3305 43.3764 13.683 43.1016 12.4572C43.0672 12.2528 43.0672 12.0485 43.1016 11.9122C43.1703 11.5716 43.4108 11.231 44.0636 11.231C44.682 11.231 45.0256 11.6057 45.0256 12.1506V12.7978H47.6024V12.0825C47.6024 9.83456 45.5753 9.49396 44.0979 9.49396C42.2426 9.49396 40.7309 10.107 40.456 11.776C40.3873 12.2188 40.3873 12.6275 40.4904 13.1724C40.9027 15.3176 44.6133 15.8969 45.1287 17.2253ZM78.9021 17.2253C79.0051 17.4633 78.9708 17.7702 78.9364 17.9742C78.8677 18.3148 78.6272 18.6554 77.9401 18.6554C77.2873 18.6554 76.9093 18.2808 76.9093 17.7362V16.7484H74.1607V17.5315C74.1607 19.8138 75.9817 20.495 77.9057 20.495C79.761 20.495 81.3071 19.8816 81.5476 18.1786C81.685 17.293 81.5823 16.7144 81.5476 16.5097C81.1009 14.3642 77.2185 13.7511 76.944 12.559C76.8753 12.3547 76.9097 12.1503 76.944 12.0141C77.0127 11.6735 77.2532 11.3329 77.8717 11.3329C78.4901 11.3329 78.8337 11.7075 78.8337 12.2525V12.8996H81.4105V12.1844C81.4105 9.97046 79.3834 9.62986 77.9404 9.62986C76.1194 9.62986 74.6077 10.2089 74.3329 11.8778C74.2641 12.3206 74.2298 12.7293 74.3672 13.2402C74.7448 15.3176 78.3867 15.8969 78.9021 17.2253ZM109.308 18.4851C110.064 18.4851 110.304 18.0083 110.374 17.7362C110.408 17.6336 110.408 17.4633 110.408 17.3608V15.8629H109.343V14.3639H113.019V17.1227C113.019 17.3271 113.019 17.4633 112.984 17.8039C112.813 19.6772 111.163 20.3584 109.308 20.3584C107.487 20.3584 105.838 19.6772 105.666 17.8039C105.632 17.4633 105.632 17.3271 105.632 17.1227V12.7971C105.632 12.6268 105.666 12.2862 105.666 12.1159C105.907 10.1745 107.453 9.5614 109.308 9.5614C111.163 9.5614 112.779 10.1745 112.95 12.1159C112.985 12.4224 112.985 12.7971 112.985 12.7971V13.1377H110.374V12.5587C110.374 12.5587 110.374 12.3203 110.339 12.15C110.304 11.9115 110.099 11.4006 109.308 11.4006C108.553 11.4006 108.346 11.9115 108.278 12.15C108.243 12.2862 108.243 12.4565 108.243 12.6268V17.3268C108.243 17.463 108.243 17.5996 108.278 17.7014C108.278 18.0424 108.553 18.4851 109.308 18.4851Z" fill="#525252"/>
<path d="M28.809 10.2086C28.4654 7.55188 27.5034 5.13362 25.8199 3.3625C24.0333 1.69356 21.5939 0.739874 18.914 0.399274C16.3372 0.0586733 14.585 0.160853 14.585 0.160853C14.585 0.160853 12.8327 0.0927334 10.2559 0.399274C7.57603 0.739874 5.13665 1.69356 3.35006 3.3625C1.66654 5.13362 0.70453 7.55188 0.360955 10.2086C0.0173804 12.7631 0.0860954 14.5001 0.0860954 14.5001C0.0860954 14.5001 0.0173804 16.2372 0.326598 18.7917C0.670173 21.448 1.63218 23.8666 3.3157 25.6378C5.10229 27.3067 7.54167 28.2601 10.2216 28.6007C12.7984 28.9413 14.5506 28.8394 14.5506 28.8394C14.5506 28.8394 16.3028 28.9072 18.8796 28.6007C21.5595 28.2601 23.9989 27.3067 25.7855 25.6378C27.469 23.867 28.431 21.448 28.7746 18.7917C29.1182 16.2372 29.0151 14.5001 29.0151 14.5001C29.0151 14.5001 29.1525 12.7631 28.809 10.2086Z" fill="#8E8E8E"/>
<path d="M5.41138 10.3108H8.02255C8.43484 10.3108 8.77841 10.3789 9.12199 10.5152C9.46556 10.6514 9.74042 10.8558 9.98092 11.0942C10.2214 11.3326 10.4276 11.6051 10.565 11.9457C10.7024 12.2863 10.7711 12.6269 10.7711 13.0015C10.7711 13.3762 10.7024 13.7168 10.565 14.0574C10.4276 14.398 10.2214 14.6708 9.98092 14.9089C9.74042 15.147 9.4312 15.352 9.12199 15.4876C8.81277 15.6238 8.43484 15.6926 8.02255 15.6926H6.85439V17.8381H5.44573V10.3108H5.41138ZM6.82003 11.6054V14.3643H7.91947C8.12562 14.3643 8.33176 14.3302 8.50355 14.2621C8.67534 14.194 8.81277 14.0918 8.9502 13.9556C9.08763 13.8193 9.15634 13.6831 9.22506 13.5128C9.29377 13.3425 9.32813 13.1722 9.32813 12.9678C9.32813 12.7635 9.29377 12.5932 9.22506 12.4229C9.15634 12.2526 9.05327 12.1163 8.9502 11.9801C8.81277 11.8438 8.67534 11.7417 8.50355 11.6735C8.33176 11.6054 8.12562 11.5714 7.91947 11.5714H6.82003V11.6054ZM14.0351 17.8381C13.6572 17.8381 13.3136 17.7703 12.9357 17.6337C12.5921 17.4975 12.2485 17.2931 11.9737 17.055C11.6988 16.7822 11.4583 16.4757 11.2865 16.101C11.1147 15.7263 11.0116 15.2836 11.0116 14.8067C11.0116 14.3299 11.0804 13.8871 11.2522 13.5124C11.4239 13.1378 11.6644 12.8312 11.9393 12.5588C12.2142 12.2863 12.5577 12.116 12.9013 11.9797C13.2792 11.8435 13.6228 11.7754 14.0351 11.7754C14.4474 11.7754 14.8253 11.8435 15.1345 11.9797C15.4781 12.116 15.753 12.3203 15.9935 12.5588V11.7754H17.4021V17.8377H15.9935V16.9862C15.7873 17.259 15.4781 17.4631 15.1345 17.6334C14.791 17.7703 14.4474 17.8381 14.0351 17.8381ZM14.2756 16.5782C14.5505 16.5782 14.791 16.5441 14.9971 16.4419C15.2033 16.3398 15.4094 16.2376 15.5812 16.0673C15.753 15.897 15.8561 15.7267 15.9591 15.5223C16.0622 15.3173 16.0966 15.0792 16.0966 14.8411C16.0966 14.6024 16.0622 14.3639 15.9591 14.1599C15.8561 13.9556 15.753 13.7512 15.5812 13.615C15.4094 13.4447 15.2376 13.3425 14.9971 13.2403C14.7566 13.1041 14.5161 13.07 14.2756 13.07C14.0351 13.07 13.7946 13.1041 13.5541 13.2062C13.3136 13.3084 13.1418 13.4106 12.97 13.5809C12.7982 13.7512 12.6608 13.9215 12.5921 14.1259C12.489 14.3302 12.4547 14.5686 12.4547 14.8071C12.4547 15.0455 12.489 15.2836 12.5921 15.4879C12.6952 15.693 12.8326 15.897 12.97 16.0673C13.1418 16.2376 13.348 16.3394 13.5541 16.4419C13.7602 16.5097 14.0008 16.5782 14.2756 16.5782ZM19.3605 11.8094L21.0784 15.9307L22.6588 11.8094H24.1362L20.5287 20.5969H19.0857L20.3569 17.5659L17.8831 11.8094H19.3605Z" fill="white"/>
</svg>
