<svg width="57" height="23" viewBox="0 0 57 23" fill="none" xmlns="http://www.w3.org/2000/svg">
<path d="M26.9587 11.2377V17.953H24.856V1.36903H30.4328C31.0984 1.35495 31.7603 1.47456 32.3801 1.72098C32.9999 1.96739 33.5654 2.33573 34.044 2.80474C34.5274 3.24526 34.9121 3.78553 35.1723 4.38921C35.4325 4.99289 35.5621 5.64601 35.5524 6.30467C35.5663 6.96685 35.4386 7.62424 35.1783 8.23177C34.9179 8.8393 34.531 9.38261 34.044 9.82446C33.0688 10.7666 31.8651 11.2372 30.4328 11.2363H26.9587V11.2377ZM26.9587 3.41077V9.19989H30.485C30.8716 9.2115 31.2563 9.14124 31.6146 8.99359C31.9728 8.84594 32.2967 8.62416 32.5655 8.34244C32.8329 8.07904 33.0455 7.76398 33.1907 7.4159C33.3358 7.06782 33.4106 6.69379 33.4106 6.31592C33.4106 5.93805 33.3358 5.56402 33.1907 5.21594C33.0455 4.86786 32.8329 4.5528 32.5655 4.2894C32.3001 4.00174 31.9773 3.77452 31.6186 3.62282C31.2599 3.47112 30.8735 3.39839 30.485 3.40945H26.9587V3.41077ZM40.3979 6.23586C41.9521 6.23586 43.1789 6.65665 44.0783 7.49822C44.9777 8.3398 45.427 9.49365 45.4261 10.9598V17.953H43.4148V16.3784H43.3234C42.4527 17.6752 41.2947 18.3235 39.8493 18.3235C38.6156 18.3235 37.5833 17.953 36.7527 17.212C36.3541 16.8719 36.0354 16.446 35.8198 15.9653C35.6043 15.4846 35.4973 14.9612 35.5067 14.4333C35.5067 13.2591 35.9447 12.3254 36.8206 11.632C37.6965 10.9386 38.8659 10.591 40.3286 10.5893C41.5772 10.5893 42.6055 10.8208 43.4135 11.284V10.797C43.4159 10.4371 43.3392 10.0812 43.189 9.75507C43.0388 9.42893 42.8188 9.14075 42.545 8.91143C41.9889 8.40315 41.2643 8.12581 40.5154 8.13469C39.3408 8.13469 38.4114 8.63664 37.727 9.64053L35.875 8.45889C36.8938 6.97687 38.4014 6.23586 40.3979 6.23586ZM37.6774 14.4796C37.676 14.7507 37.7385 15.0182 37.8598 15.2599C37.9812 15.5016 38.1577 15.7104 38.3748 15.869C38.8399 16.2396 39.4171 16.4359 40.0087 16.4247C40.896 16.4232 41.7465 16.0654 42.3739 15.4296C43.0705 14.7654 43.4187 13.986 43.4187 13.0915C42.7631 12.5622 41.8489 12.2976 40.676 12.2976C39.8219 12.2976 39.1097 12.5062 38.5394 12.9235C37.9634 13.3469 37.6774 13.8616 37.6774 14.4796ZM56.9715 6.60637L49.9503 22.9548H47.7796L50.3852 17.2345L45.7683 6.60637H48.0539L51.3908 14.7574H51.4365L54.6821 6.60637H56.9715Z" fill="#8E8E8E"/>
<path d="M18.4616 9.79023C18.4624 9.14099 18.4082 8.49288 18.2997 7.85303H9.43164V11.5223H14.5108C14.4069 12.1084 14.1869 12.667 13.8641 13.1646C13.5414 13.6622 13.1225 14.0884 12.6327 14.4176V16.7994H15.6641C17.439 15.1414 18.4616 12.6894 18.4616 9.79023Z" fill="#F3F3F3"/>
<path d="M9.4318 19.1003C11.9694 19.1003 14.1061 18.2561 15.6642 16.8005L12.6329 14.4187C11.7892 14.9983 10.7026 15.3291 9.4318 15.3291C6.97905 15.3291 4.89722 13.6539 4.15278 11.3965H1.03003V13.8511C1.8127 15.429 3.01283 16.7555 4.49645 17.6824C5.98007 18.6093 7.68877 19.1002 9.4318 19.1003Z" fill="#C4C4C4"/>
<path d="M4.15311 11.3966C3.75954 10.2137 3.75954 8.93266 4.15311 7.74975V5.29517H1.03036C0.371951 6.62257 0.0290527 8.08757 0.0290527 9.57316C0.0290527 11.0587 0.371951 12.5238 1.03036 13.8512L4.15311 11.3966Z" fill="#8E8E8E"/>
<path d="M9.4318 3.81699C10.7728 3.79479 12.0686 4.30814 13.0391 5.24607L15.723 2.52684C14.0211 0.907312 11.7665 0.0181633 9.4318 0.0457911C7.68877 0.0458716 5.98007 0.536781 4.49645 1.46371C3.01283 2.39064 1.8127 3.71711 1.03003 5.29503L4.15278 7.74962C4.89722 5.49219 6.97905 3.81699 9.4318 3.81699Z" fill="#525252"/>
</svg>
