<svg width="0" height="0" class="hidden">
  <symbol xmlns="http://www.w3.org/2000/svg" viewBox="0 0 20 20" id="ic_arrow">
    <path d="M12.9458 2.9292L5.875 10L12.9458 17.0709L14.125 15.8925L8.23167 10L14.125 4.10753L12.9458 2.9292Z" fill="currentColor"></path>
  </symbol>
  <symbol xmlns="http://www.w3.org/2000/svg" viewBox="0 0 20 20" id="ic_arrow2">
    <path d="M12.9458 2.9292L5.875 10L12.9458 17.0709L14.125 15.8925L8.23167 10L14.125 4.10753L12.9458 2.9292Z" fill="currentColor"></path>
    <line x1="8" y1="10" x2="20" y2="10" stroke="currentColor" stroke-width="2" fill="none"></line>
  </symbol>
  <symbol xmlns="http://www.w3.org/2000/svg" viewBox="0 0 24 24" id="ic_buttonUp">
    <path d="M13 7.83L16.59 11.41L18 10L12 4L6 10L7.41 11.41L11 7.83V20H13V7.83Z" fill="currentColor"></path>
  </symbol>
  <symbol xmlns="http://www.w3.org/2000/svg" viewBox="0 0 20 20" id="ic_cart">
    <path d="M1.62593 19.209L1.62593 19.209L2.84772 5.60241L2.84772 5.60241L2.94732 5.61135L1.62593 19.209ZM1.62593 19.209C1.60543 19.4378 1.68198 19.6645 1.83694 19.8339C1.99189 20.0034 2.21096 20.0999 2.44051 20.0999H17.5563H17.5563H17.5563H17.5564H17.5564H17.5564H17.5564H17.5564H17.5564H17.5565H17.5565H17.5565H17.5565H17.5565H17.5565H17.5566H17.5566H17.5566H17.5566H17.5566H17.5566H17.5567H17.5567H17.5567H17.5567H17.5567H17.5567H17.5568H17.5568H17.5568H17.5568H17.5568H17.5568H17.5569H17.5569H17.5569H17.5569H17.5569H17.5569H17.5569H17.557H17.557H17.557H17.557H17.557H17.557H17.5571H17.5571H17.5571H17.5571H17.5571H17.5571H17.5571H17.5572H17.5572H17.5572H17.5572H17.5572H17.5572H17.5573H17.5573H17.5573H17.5573H17.5573H17.5573H17.5574H17.5574H17.5574H17.5574H17.5574H17.5574H17.5574H17.5575H17.5575H17.5575H17.5575H17.5575H17.5575H17.5576H17.5576H17.5576H17.5576H17.5576H17.5576H17.5576H17.5577H17.5577H17.5577H17.5577H17.5577H17.5577H17.5578H17.5578H17.5578H17.5578H17.5578H17.5578H17.5578H17.5579H17.5579H17.5579H17.5579H17.5579H17.558H17.558H17.558H17.558H17.558H17.558H17.5581H17.5581H17.5581H17.5581H17.5581H17.5581H17.5582H17.5582H17.5582H17.5582C18.01 20.0999 18.3761 19.7337 18.3761 19.282V19.2818M1.62593 19.209L18.3761 19.2818M18.3761 19.2818C18.376 19.2379 18.3725 19.1945 18.3657 19.1521M18.3761 19.2818L18.3657 19.1521M18.3657 19.1521L17.149 5.60241C17.1112 5.18071 16.7577 4.85772 16.3344 4.85772H13.9247V3.8258C13.9247 1.66103 12.1638 -0.1 9.99908 -0.1C7.83448 -0.1 6.07376 1.66104 6.07376 3.8258V4.85772L18.3657 19.1521ZM7.70947 3.8258C7.70947 2.56312 8.73672 1.53572 9.99917 1.53572C11.2617 1.53572 12.2891 2.56313 12.2891 3.8258V4.85772H7.70947V3.8258ZM15.5868 6.49343L16.6617 18.4643H3.33514L4.41004 6.49343H6.07376V7.67715C6.07376 8.12882 6.43983 8.49501 6.89161 8.49501C7.3434 8.49501 7.70947 8.12882 7.70947 7.67715V6.49343H12.2891V7.67715C12.2891 8.12882 12.6551 8.49501 13.1069 8.49501C13.5587 8.49501 13.9248 8.12882 13.9248 7.67715V6.49343H15.5868Z" fill="currentColor" stroke="currentColor" stroke-width="0.2"></path>
  </symbol>
  <symbol xmlns="http://www.w3.org/2000/svg" viewBox="0 0 24 24" id="ic_close">
    <path d="M17.59 5L12 10.59L6.41 5L5 6.41L10.59 12L5 17.59L6.41 19L12 13.41L17.59 19L19 17.59L13.41 12L19 6.41L17.59 5Z" fill="currentColor"></path>
  </symbol>
  <symbol xmlns="http://www.w3.org/2000/svg" viewBox="0 0 16 16" id="ic_delivery">
    <path d="M3.28312 10.0386C2.17796 10.0386 1.27881 10.9376 1.27881 12.0429C1.27881 13.1482 2.178 14.0472 3.28312 14.0472C4.38825 14.0472 5.28743 13.148 5.28743 12.0429C5.28743 10.9378 4.38825 10.0386 3.28312 10.0386ZM3.28312 13.0107C2.74956 13.0107 2.31553 12.5766 2.31553 12.0431C2.31553 11.5095 2.74956 11.0753 3.28312 11.0753C3.81668 11.0753 4.25071 11.5095 4.25071 12.0431C4.25071 12.5766 3.81668 13.0107 3.28312 13.0107Z" fill="currentColor"></path>
    <path d="M12.2328 10.0386C11.1275 10.0386 10.2285 10.9376 10.2285 12.0429C10.2285 13.1482 11.1277 14.0472 12.2328 14.0472C13.338 14.0472 14.2371 13.148 14.2371 12.0429C14.2372 10.9378 13.3381 10.0386 12.2328 10.0386ZM12.2328 13.0107C11.6993 13.0107 11.2652 12.5766 11.2652 12.0431C11.2652 11.5095 11.6993 11.0753 12.2328 11.0753C12.7664 11.0753 13.2006 11.5095 13.2006 12.0431C13.2006 12.5766 12.7664 13.0107 12.2328 13.0107Z" fill="currentColor"></path>
    <path d="M1.96975 4.52734C1.77572 4.52734 1.59791 4.63569 1.50894 4.80828L0.0575312 7.62472C0.0196875 7.69812 0 7.77953 0 7.86212V12.0436C0 12.3299 0.232062 12.5619 0.518344 12.5619H1.77969V11.5252H1.03672V7.98791L2.28578 5.56406H6.23756V4.52734H1.96975Z" fill="currentColor"></path>
    <path d="M10.7296 11.5249H4.82031V12.5616H10.7296V11.5249Z" fill="currentColor"></path>
    <path d="M15.4816 1.95264H6.23758C5.95127 1.95264 5.71924 2.1847 5.71924 2.47098V12.0433H6.75596V2.98936H14.9633V11.525H13.7192V12.5617H15.4816C15.768 12.5617 16 12.3296 16 12.0434V2.47101C16 2.1847 15.7679 1.95264 15.4816 1.95264Z" fill="currentColor"></path>
    <path d="M6.23777 7.36084H0.518555V8.39757H6.23777V7.36084Z" fill="currentColor"></path>
    <path d="M13.3984 5.11608C13.2082 4.90183 12.8804 4.88264 12.6667 5.07289L10.097 7.35539L9.07755 6.32283C8.87643 6.11911 8.54815 6.11705 8.34458 6.31817C8.14087 6.5193 8.1388 6.84758 8.33993 7.0513L9.70477 8.43358C9.80587 8.53605 9.93977 8.58789 10.0738 8.58789C10.1965 8.58789 10.3194 8.54451 10.4177 8.45708L13.3551 5.84783C13.5691 5.65776 13.5885 5.33014 13.3984 5.11608Z" fill="currentColor"></path>
  </symbol>
  <symbol xmlns="http://www.w3.org/2000/svg" viewBox="0 0 30 30" id="ic_facebook">
    <path d="M15 0C6.72903 0 0 6.72903 0 15C0 23.2704 6.72903 30 15 30C23.2704 30 30 23.2704 30 15C30 6.72903 23.2716 0 15 0ZM18.7304 15.5281H16.29C16.29 19.427 16.29 24.2262 16.29 24.2262H12.6738C12.6738 24.2262 12.6738 19.4735 12.6738 15.5281H10.9548V12.4539H12.6738V10.4654C12.6738 9.04133 13.3505 6.81604 16.3232 6.81604L19.0029 6.82631V9.81048C19.0029 9.81048 17.3745 9.81048 17.0579 9.81048C16.7413 9.81048 16.2912 9.96878 16.2912 10.6479V12.4545H19.0464L18.7304 15.5281Z" fill="currentColor"></path>
  </symbol>
  <symbol xmlns="http://www.w3.org/2000/svg" viewBox="0 0 24 24" id="ic_favorite">
    <path d="M12 21C11.355 20.428 10.626 19.833 9.85502 19.2H9.84502C7.13002 16.98 4.05302 14.468 2.69402 11.458C2.24754 10.4997 2.01093 9.45713 2.00001 8.4C1.99703 6.94949 2.57879 5.55899 3.61383 4.54277C4.64887 3.52655 6.04981 2.9704 7.50002 3C8.68065 3.00187 9.83586 3.34308 10.828 3.983C11.264 4.26597 11.6584 4.60826 12 5C12.3435 4.6098 12.7381 4.26771 13.173 3.983C14.1648 3.34296 15.3197 3.00172 16.5 3C17.9502 2.9704 19.3512 3.52655 20.3862 4.54277C21.4213 5.55899 22.003 6.94949 22 8.4C21.9898 9.45882 21.7532 10.5032 21.306 11.463C19.947 14.473 16.871 16.984 14.156 19.2L14.146 19.208C13.374 19.837 12.646 20.432 12.001 21.008L12 21ZM7.50002 5C6.56853 4.98835 5.67009 5.34485 5.00002 5.992C4.35441 6.62617 3.99358 7.49505 3.99994 8.4C4.01135 9.1705 4.18585 9.92985 4.51202 10.628C5.15353 11.9267 6.01913 13.1021 7.06902 14.1C8.06002 15.1 9.20002 16.068 10.186 16.882C10.459 17.107 10.737 17.334 11.015 17.561L11.19 17.704C11.457 17.922 11.733 18.148 12 18.37L12.013 18.358L12.019 18.353H12.025L12.034 18.346H12.039H12.044L12.062 18.331L12.103 18.298L12.11 18.292L12.121 18.284H12.127L12.136 18.276L12.8 17.731L12.974 17.588C13.255 17.359 13.533 17.132 13.806 16.907C14.792 16.093 15.933 15.126 16.924 14.121C17.9741 13.1236 18.8397 11.9485 19.481 10.65C19.8131 9.9458 19.9901 9.17851 20.0001 8.4C20.0042 7.49784 19.6435 6.6323 19 6C18.3312 5.34992 17.4326 4.99049 16.5 5C15.3619 4.99033 14.274 5.46737 13.51 6.311L12 8.051L10.49 6.311C9.72609 5.46737 8.6381 4.99033 7.50002 5Z" fill="currentColor"></path>
  </symbol>
  <symbol xmlns="http://www.w3.org/2000/svg" viewBox="0 0 24 24" id="ic_favorite2">
    <path d="M2 8.39995C1.99975 6.95029 2.58239 5.5614 3.61681 4.54578C4.65124 3.53016 6.05058 2.97311 7.5 2.99995C9.21732 2.99083 10.856 3.71913 12 4.99995C13.144 3.71913 14.7827 2.99083 16.5 2.99995C17.9494 2.97311 19.3488 3.53016 20.3832 4.54578C21.4176 5.5614 22.0002 6.95029 22 8.39995C22 13.756 15.621 17.8 12 21C8.387 17.773 2 13.76 2 8.39995Z" fill="currentColor"></path>
  </symbol>
  <symbol xmlns="http://www.w3.org/2000/svg" viewBox="0 0 20 20" id="ic_grid">
    <path d="M15.8334 15.8332H10.8334V10.8332H15.8334V15.8332ZM9.16675 15.8332H4.16675V10.8332H9.16675V15.8332ZM15.8334 9.1665H10.8334V4.1665H15.8334V9.1665ZM9.16675 9.1665H4.16675V4.1665H9.16675V9.1665Z" fill="currentColor"></path>
  </symbol>
  <symbol xmlns="http://www.w3.org/2000/svg" viewBox="0 0 30 30" id="ic_instagram">
    <path d="M14.9993 18.0028C16.6541 18.0028 18.0034 16.6561 18.0034 15C18.0034 14.3462 17.7895 13.7426 17.4353 13.2496C16.8898 12.4931 16.0028 11.9971 15.0011 11.9971C13.9987 11.9971 13.1123 12.4925 12.5655 13.249C12.2102 13.742 11.9982 14.3456 11.9976 14.9994C11.9958 16.6555 13.3437 18.0028 14.9993 18.0028Z" fill="currentColor"></path>
    <path d="M21.5569 11.3263V8.80918V8.43457L21.1805 8.43577L18.6646 8.44363L18.6742 11.336L21.5569 11.3263Z" fill="currentColor"></path>
    <path d="M15 0C6.72903 0 0 6.72903 0 15C0 23.2704 6.72903 30 15 30C23.2704 30 30 23.2704 30 15C30 6.72903 23.2716 0 15 0ZM23.5308 13.2496V20.2342C23.5308 22.0534 22.0517 23.532 20.2337 23.532H9.76638C7.94772 23.532 6.46923 22.0534 6.46923 20.2342V13.2496V9.76698C6.46923 7.94832 7.94772 6.46983 9.76638 6.46983H20.233C22.0516 6.46983 23.5308 7.94832 23.5308 9.76698V13.2496Z" fill="currentColor"></path>
    <path d="M19.6662 14.9999C19.6662 17.5719 17.5731 19.6661 14.9998 19.6661C12.4265 19.6661 10.3342 17.5719 10.3342 14.9999C10.3342 14.3812 10.4574 13.7897 10.6773 13.2495H8.13062V20.2341C8.13062 21.1368 8.86352 21.8679 9.7656 21.8679H20.2323C21.1332 21.8679 21.8673 21.1368 21.8673 20.2341V13.2495H19.3192C19.5411 13.7897 19.6662 14.3812 19.6662 14.9999Z" fill="currentColor"></path>
  </symbol>
  <symbol xmlns="http://www.w3.org/2000/svg" viewBox="0 0 24 24" id="ic_location">
    <path d="M12 21C10.7369 19.9226 9.56619 18.7415 8.5 17.469C6.9 15.558 5 12.712 5 10C4.99858 7.16755 6.70425 4.61339 9.32107 3.5294C11.9379 2.44541 14.9501 3.04524 16.952 5.049C18.2685 6.35961 19.0059 8.14239 19 10C19 12.712 17.1 15.558 15.5 17.469C14.4338 18.7415 13.2631 19.9226 12 21ZM12 7C10.9282 7 9.93782 7.5718 9.40193 8.5C8.86603 9.4282 8.86603 10.5718 9.40193 11.5C9.93782 12.4282 10.9282 13 12 13C13.6569 13 15 11.6569 15 10C15 8.34315 13.6569 7 12 7Z" fill="currentColor"></path>
  </symbol>
  <symbol xmlns="http://www.w3.org/2000/svg" viewBox="0 0 20 20" id="ic_list">
    <path d="M6.66667 4.16667H17.5V5.83333H6.66667V4.16667ZM2.5 3.75H5V6.25H2.5V3.75ZM2.5 8.75H5V11.25H2.5V8.75ZM2.5 13.75H5V16.25H2.5V13.75ZM6.66667 9.16667H17.5V10.8333H6.66667V9.16667ZM6.66667 14.1667H17.5V15.8333H6.66667V14.1667Z" fill="currentColor"></path>
  </symbol>
  <symbol xmlns="http://www.w3.org/2000/svg" viewBox="0 0 10 9" id="ic_plus">
    <path d="M1 4.5H9M5 8.5V0.5" stroke="currentColor" stroke-linecap="round" fill="none"></path>
  </symbol>
  <symbol xmlns="http://www.w3.org/2000/svg" viewBox="0 0 15 10" id="ic_metro">
    <path d="M13.5506 8.60303L10.1513 0L7.2759 5.0291L4.41211 0L1.00116 8.60303H0V9.90687H5.14552V8.60303H4.37718L5.12224 6.461L7.2759 10L9.42957 6.461L10.1746 8.60303H9.40629V9.90687H14.5518V8.60303H13.5506Z" fill="currentColor"></path>
  </symbol>
  <symbol xmlns="http://www.w3.org/2000/svg" viewBox="0 0 10 1" id="ic_minus">
    <line x1="0.5" y1="0.5" x2="9.5" y2="0.5" stroke="currentColor" stroke-linecap="round" fill="none"></line>
  </symbol>
  <symbol xmlns="http://www.w3.org/2000/svg" viewBox="0 0 16 16" id="ic_payment">
    <path d="M13.3335 13.3332H2.66683C1.93045 13.3332 1.3335 12.7362 1.3335 11.9998V3.99984C1.3335 3.26346 1.93045 2.6665 2.66683 2.6665H13.3335C14.0699 2.6665 14.6668 3.26346 14.6668 3.99984V11.9998C14.6668 12.7362 14.0699 13.3332 13.3335 13.3332ZM2.66683 7.99984V11.9998H13.3335V7.99984H2.66683ZM2.66683 3.99984V5.33317H13.3335V3.99984H2.66683ZM8.66683 10.6665H4.00016V9.33317H8.66683V10.6665Z" fill="currentColor"></path>
  </symbol>
  <symbol xmlns="http://www.w3.org/2000/svg" viewBox="0 0 24 24" id="ic_search">
    <path d="M18.677 19.607L12.962 13.891C10.4196 15.6985 6.91642 15.2563 4.90285 12.8739C2.88929 10.4915 3.03714 6.96359 5.24298 4.758C7.44824 2.55144 10.9765 2.40295 13.3594 4.41641C15.7422 6.42987 16.1846 9.93344 14.377 12.476L20.092 18.192L18.678 19.606L18.677 19.607ZM9.48498 4.99998C7.58868 4.99956 5.95267 6.33067 5.56745 8.18743C5.18224 10.0442 6.15369 11.9163 7.89366 12.6702C9.63362 13.4242 11.6639 12.8528 12.7552 11.302C13.8466 9.75127 13.699 7.64731 12.402 6.264L13.007 6.864L12.325 6.184L12.313 6.172C11.5648 5.41917 10.5464 4.99712 9.48498 4.99998Z" fill="currentColor"></path>
  </symbol>
  <symbol xmlns="http://www.w3.org/2000/svg" viewBox="0 0 14 13" id="ic_star">
    <path d="M6.04894 0.927052C6.3483 0.0057416 7.6517 0.00574088 7.95106 0.927052L8.79611 3.52786C8.92999 3.93989 9.31394 4.21885 9.74717 4.21885H12.4818C13.4505 4.21885 13.8533 5.45846 13.0696 6.02786L10.8572 7.63525C10.5067 7.8899 10.3601 8.34127 10.494 8.75329L11.339 11.3541C11.6384 12.2754 10.5839 13.0415 9.80017 12.4721L7.58779 10.8647C7.2373 10.6101 6.7627 10.6101 6.41222 10.8647L4.19983 12.4721C3.41612 13.0415 2.36164 12.2754 2.66099 11.3541L3.50604 8.75329C3.63992 8.34127 3.49326 7.8899 3.14277 7.63525L0.930391 6.02787C0.146677 5.45846 0.549452 4.21885 1.51818 4.21885H4.25283C4.68606 4.21885 5.07001 3.93989 5.20389 3.52786L6.04894 0.927052Z" fill="currentColor"></path>
  </symbol>
  <symbol xmlns="http://www.w3.org/2000/svg" viewBox="0 0 24 24" id="ic_user">
    <path d="M7 8C7 5.23858 9.23858 3 12 3C14.7614 3 17 5.23858 17 8C17 10.7614 14.7614 13 12 13C9.23858 13 7 10.7614 7 8ZM12 11C13.6569 11 15 9.65685 15 8C15 6.34315 13.6569 5 12 5C10.3431 5 9 6.34315 9 8C9 9.65685 10.3431 11 12 11Z" fill="currentColor"></path>
    <path d="M6.34315 16.3431C4.84285 17.8434 4 19.8783 4 22H6C6 20.4087 6.63214 18.8826 7.75736 17.7574C8.88258 16.6321 10.4087 16 12 16C13.5913 16 15.1174 16.6321 16.2426 17.7574C17.3679 18.8826 18 20.4087 18 22H20C20 19.8783 19.1571 17.8434 17.6569 16.3431C16.1566 14.8429 14.1217 14 12 14C9.87827 14 7.84344 14.8429 6.34315 16.3431Z" fill="currentColor"></path>
  </symbol>
  <symbol xmlns="http://www.w3.org/2000/svg" viewBox="0 0 30 30" id="ic_vkontakte">
    <path d="M15 0C6.71601 0 0 6.7157 0 15C0 23.2843 6.71601 30 15 30C23.284 30 30 23.2843 30 15C30 6.7157 23.284 0 15 0ZM22.6088 16.6223C23.3079 17.3052 24.0476 17.9478 24.6752 18.7013C24.9532 19.0346 25.2153 19.3792 25.4148 19.7669C25.6996 20.3196 25.4425 20.9257 24.9477 20.9586L21.8747 20.958C21.081 21.0236 20.4494 20.7035 19.9169 20.1609C19.4919 19.7285 19.0975 19.2666 18.6881 18.8194C18.5208 18.6359 18.3447 18.4631 18.1347 18.3272C17.7158 18.0546 17.3518 18.1381 17.1118 18.5758C16.8672 19.0211 16.8114 19.5146 16.788 20.0102C16.7546 20.7348 16.5361 20.9242 15.809 20.9583C14.2554 21.031 12.7814 20.7953 11.4114 20.0121C10.2028 19.3212 9.26731 18.3462 8.45217 17.2423C6.86486 15.0902 5.64921 12.7283 4.55693 10.2985C4.3111 9.7513 4.49095 9.45852 5.09463 9.44716C6.0976 9.42783 7.10056 9.43028 8.10353 9.44624C8.51171 9.45268 8.78179 9.68624 8.93862 10.0714C9.48061 11.4049 10.1451 12.6737 10.9777 13.8503C11.1996 14.1637 11.4261 14.4761 11.7486 14.6974C12.1047 14.9417 12.376 14.861 12.5438 14.4635C12.6513 14.2109 12.6976 13.9409 12.7209 13.6702C12.8007 12.743 12.8102 11.8162 12.6721 10.8927C12.5862 10.3148 12.2612 9.94158 11.6851 9.83233C11.3917 9.77678 11.4347 9.66813 11.5774 9.50056C11.8251 9.21084 12.0571 9.03161 12.5208 9.03161L15.9928 9.031C16.5401 9.13841 16.6628 9.38394 16.7371 9.93514L16.7402 13.7936C16.7337 14.0069 16.8473 14.6391 17.2303 14.7787C17.5372 14.88 17.7397 14.6339 17.9233 14.4396C18.7559 13.556 19.3492 12.5131 19.8804 11.4338C20.1149 10.9577 20.3171 10.4652 20.5136 9.97166C20.6596 9.60675 20.8868 9.42721 21.2986 9.43335L24.642 9.43734C24.7406 9.43734 24.8406 9.43826 24.9382 9.45514C25.5017 9.55151 25.6561 9.79396 25.4817 10.3436C25.2074 11.2073 24.6743 11.9266 24.1531 12.6479C23.5946 13.4201 22.9989 14.1652 22.4458 14.9408C21.9376 15.6497 21.9778 16.0066 22.6088 16.6223Z" fill="currentColor"></path>
  </symbol>
</svg>